<?xml version="1.0" encoding="UTF-8"?>
<svg id="Capa_1" data-name="Capa 1" xmlns="http://www.w3.org/2000/svg" viewBox="0 0 901 233.67">
  <defs>
    <style>
      .cls-1 {
        font-family: FranklinGothic-Heavy, 'Franklin Gothic Heavy';
        font-size: 48.51px;
        font-weight: 800;
      }

      .cls-1, .cls-2 {
        fill: #fcf992;
      }

      .cls-1, .cls-2, .cls-3, .cls-4 {
        stroke: #000;
        stroke-miterlimit: 10;
      }

      .cls-5 {
        letter-spacing: -.06em;
      }

      .cls-3 {
        fill: #9fff9f;
      }

      .cls-4 {
        fill: #ff0;
      }
    </style>
  </defs>
  <rect class="cls-4" x=".5" y=".5" width="900" height="164"/>
  <rect class="cls-3" x="18.44" y="18.5" width="128" height="128"/>
  <rect class="cls-3" x="165.66" y="18.5" width="128" height="128"/>
  <rect class="cls-3" x="312.89" y="18.5" width="128" height="128"/>
  <rect class="cls-3" x="460.11" y="18.5" width="128" height="128"/>
  <rect class="cls-3" x="607.34" y="18.5" width="128" height="128"/>
  <rect class="cls-3" x="754.56" y="18.5" width="128" height="128"/>
  <path class="cls-2" d="m134.84,43.09l-20.91,78.82h-20.33l-11.03-43.48-10.41,43.48h-21.19L30.04,43.09h22.77l11.02,45.36,10.76-45.36h18.99l11.7,45.45,11.04-45.45h18.52Z"/>
  <path class="cls-2" d="m229.75,121.91c-10.76,0-19.52-3.57-26.3-10.7-6.78-7.13-10.17-16.67-10.17-28.63s3.24-20.87,9.72-28.32c6.48-7.45,15.47-11.18,26.97-11.18,10.64,0,19.32,3.51,26.02,10.53,6.7,7.02,10.06,16.4,10.06,28.12s-3.38,21.87-10.14,29.19c-6.76,7.32-15.48,10.98-26.16,10.98Zm-.11-17.37c3.96,0,6.81-1.73,8.54-5.18,1.74-3.45,2.6-9.78,2.6-18.96,0-13.29-3.57-19.94-10.7-19.94-7.69,0-11.54,7.58-11.54,22.74,0,14.23,3.7,21.34,11.09,21.34Z"/>
  <path class="cls-2" d="m411.97,121.91h-26.82l-11.51-30.14h-7.63v30.14h-24.19V43.09h41.17c9.08,0,16.14,2.13,21.16,6.38,5.02,4.25,7.54,9.86,7.54,16.83,0,4.54-.92,8.56-2.77,12.04-1.85,3.48-5.58,6.55-11.2,9.21l14.26,34.36Zm-45.96-47h10.34c3.04,0,5.49-.64,7.33-1.91s2.77-3.14,2.77-5.6c0-5.04-3.1-7.56-9.3-7.56h-11.14v15.07Z"/>
  <path class="cls-2" d="m489.06,121.91V43.09h30.49c13.24,0,23.15,3.93,29.74,11.78,6.58,7.85,9.87,16.94,9.87,27.25,0,11.78-3.53,21.36-10.6,28.73-7.06,7.37-16.24,11.06-27.51,11.06h-31.99Zm24.19-18.13h6.29c4,0,7.38-1.94,10.13-5.83,2.75-3.89,4.13-9.18,4.13-15.88,0-5.74-1.22-10.68-3.67-14.84-2.44-4.16-5.98-6.24-10.6-6.24h-6.29v42.79Z"/>
  <path class="cls-2" d="m698.97,102.57v19.34h-55.26V43.09h24.19v59.47h31.07Z"/>
  <path class="cls-2" d="m848.21,103.09v18.82h-59.3V43.09h59.3v18.19h-35.57v11.43h28.76v17.5h-28.76v12.88h35.57Z"/>
  <text class="cls-1" transform="translate(327.5 218.29)"><tspan x="0" y="0">2 PL</tspan><tspan class="cls-5" x="97.9" y="0">A</tspan><tspan x="126.11" y="0">YERS</tspan></text>
</svg>